<svg width="42" height="53" viewBox="0 0 42 53" fill="none" xmlns="http://www.w3.org/2000/svg">
<path d="M13.3015 31V24.3L13.6215 24.64H11.6515V24H14.0215V31H13.3015ZM19.342 29.64L19.362 28.73L22.632 25.75H23.502L21.192 27.96L20.792 28.3L19.342 29.64ZM18.782 31V23.58H19.492V31H18.782ZM22.852 31L20.662 28.27L21.122 27.72L23.722 31H22.852ZM26.8228 32.99C26.3428 32.99 25.8828 32.92 25.4428 32.78C25.0028 32.64 24.6461 32.44 24.3728 32.18L24.7328 31.64C24.9794 31.86 25.2828 32.0333 25.6428 32.16C26.0094 32.2933 26.3961 32.36 26.8028 32.36C27.4694 32.36 27.9594 32.2033 28.2728 31.89C28.5861 31.5833 28.7428 31.1033 28.7428 30.45V29.14L28.8428 28.24L28.7728 27.34V25.75H29.4528V30.36C29.4528 31.2667 29.2294 31.93 28.7828 32.35C28.3428 32.7767 27.6894 32.99 26.8228 32.99ZM26.6928 30.8C26.1928 30.8 25.7428 30.6933 25.3428 30.48C24.9428 30.26 24.6261 29.9567 24.3928 29.57C24.1661 29.1833 24.0528 28.74 24.0528 28.24C24.0528 27.74 24.1661 27.3 24.3928 26.92C24.6261 26.5333 24.9428 26.2333 25.3428 26.02C25.7428 25.8067 26.1928 25.7 26.6928 25.7C27.1594 25.7 27.5794 25.7967 27.9528 25.99C28.3261 26.1833 28.6228 26.47 28.8428 26.85C29.0628 27.23 29.1728 27.6933 29.1728 28.24C29.1728 28.7867 29.0628 29.25 28.8428 29.63C28.6228 30.01 28.3261 30.3 27.9528 30.5C27.5794 30.7 27.1594 30.8 26.6928 30.8ZM26.7628 30.17C27.1494 30.17 27.4928 30.09 27.7928 29.93C28.0928 29.7633 28.3294 29.5367 28.5028 29.25C28.6761 28.9567 28.7628 28.62 28.7628 28.24C28.7628 27.86 28.6761 27.5267 28.5028 27.24C28.3294 26.9533 28.0928 26.73 27.7928 26.57C27.4928 26.4033 27.1494 26.32 26.7628 26.32C26.3828 26.32 26.0394 26.4033 25.7328 26.57C25.4328 26.73 25.1961 26.9533 25.0228 27.24C24.8561 27.5267 24.7728 27.86 24.7728 28.24C24.7728 28.62 24.8561 28.9567 25.0228 29.25C25.1961 29.5367 25.4328 29.7633 25.7328 29.93C26.0394 30.09 26.3828 30.17 26.7628 30.17Z" fill="#282828"/>
<path d="M9 5H33" stroke="#282828" stroke-linecap="round"/>
<path d="M10.355 0.5H31.646C32.4304 0.50008 33.0819 1.10457 33.1411 1.88672L36.8394 50.8877C36.9048 51.7579 36.2169 52.4998 35.3442 52.5H6.65674C5.78414 52.4998 5.09617 51.7578 5.16162 50.8877L8.85986 1.88672C8.91911 1.1046 9.5706 0.500136 10.355 0.5Z" stroke="#282828"/>
<path d="M7.50003 15.4999L2.3609 29.8895C0.832663 34.1685 0.807052 38.8404 2.28828 43.136L5.00002 51" stroke="#282828" stroke-linecap="round"/>
<path d="M34.5 15.4999L39.678 29.9983C41.1824 34.2108 41.2313 38.806 39.8168 43.0496L37 51.5" stroke="#282828" stroke-linecap="round"/>
</svg>
