<svg width="43" height="53" viewBox="0 0 43 53" fill="none" xmlns="http://www.w3.org/2000/svg">
<path d="M18.1909 11.6835H33.3784C33.8142 11.6835 34.2283 11.8732 34.5132 12.203L38.5259 16.8495L41.9956 21.4032C42.1946 21.6644 42.3032 21.984 42.3032 22.3124V50.9999C42.3032 51.8282 41.6315 52.4997 40.8032 52.4999H10.7661C9.93769 52.4999 9.26611 51.8283 9.26611 50.9999V22.3124L9.271 22.1903C9.29431 21.9055 9.39853 21.6319 9.57275 21.4032L13.0425 16.8495L17.0552 12.203C17.3401 11.8731 17.755 11.6835 18.1909 11.6835Z" stroke="#282828"/>
<path d="M25.7844 16.5321C25.7844 15.7786 25.7844 11.7406 25.7844 7.79578C25.7844 4.41377 23.352 1.52192 20.02 0.942446L19.0804 0.779037C16.4549 0.322426 13.8596 1.72963 12.8099 4.17908C11.0399 8.30899 5.4295 8.90425 2.83234 5.23767L0.5 1.94495" stroke="#282828" stroke-linecap="round"/>
</svg>
